<?xml version="1.0" standalone="no"?>
<!DOCTYPE svg PUBLIC "-//W3C//DTD SVG 20010904//EN"
 "http://www.w3.org/TR/2001/REC-SVG-20010904/DTD/svg10.dtd">
<svg version="1.0" xmlns="http://www.w3.org/2000/svg"
 width="260.000000pt" height="260.000000pt" viewBox="0 0 260.000000 260.000000"
 preserveAspectRatio="xMidYMid meet">
<metadata>
Created by potrace 1.14, written by Peter Selinger 2001-2017
</metadata>
<g transform="translate(0.000000,260.000000) scale(0.100000,-0.100000)"
fill="#000000" stroke="none">
<path d="M1180 2540 c0 -49 -1 -50 -30 -50 l-30 0 0 -90 0 -90 -35 0 -35 0 0
-645 0 -645 -445 0 -445 0 0 90 c0 73 -3 90 -15 90 -10 0 -15 11 -15 35 0 34
-1 35 -40 35 -39 0 -40 -1 -40 -35 0 -19 -4 -35 -10 -35 -6 0 -10 -103 -10
-290 0 -251 -2 -290 -15 -290 -11 0 -15 -11 -15 -40 l0 -40 90 0 90 0 0 40 c0
22 -4 40 -10 40 -5 0 -10 5 -10 10 0 6 45 10 115 10 l115 0 0 -65 0 -65 195 0
195 0 0 -135 0 -135 135 0 135 0 0 -75 c0 -43 4 -75 10 -75 6 0 10 -18 10 -40
l0 -40 235 0 235 0 0 40 c0 29 4 40 15 40 12 0 15 14 15 65 l0 65 130 0 130 0
0 135 0 135 195 0 195 0 0 75 0 75 115 0 c70 0 115 -4 115 -10 0 -5 -4 -10
-10 -10 -5 0 -10 -18 -10 -40 l0 -40 85 0 85 0 0 40 c0 22 -4 40 -10 40 -6 0
-10 103 -10 290 0 187 -4 290 -10 290 -5 0 -10 16 -10 35 0 34 -1 35 -40 35
-39 0 -40 -1 -40 -35 0 -24 -5 -35 -15 -35 -12 0 -15 -17 -15 -90 l0 -90 -370
0 -370 0 0 25 c0 18 -5 25 -20 25 -13 0 -20 7 -20 20 0 15 -7 20 -25 20 -20 0
-25 5 -25 25 0 20 -5 25 -25 25 l-25 0 0 575 0 575 -40 0 -40 0 0 90 c0 89 0
90 -25 90 -23 0 -25 3 -25 50 l0 50 -130 0 -130 0 0 -50z"/>
</g>
</svg>
